<?xml version="1.0" encoding="utf-8"?>
<!-- Generator: Adobe Illustrator 24.2.1, SVG Export Plug-In . SVG Version: 6.00 Build 0)  -->
<svg version="1.1" id="Layer_1" xmlns="http://www.w3.org/2000/svg" xmlns:xlink="http://www.w3.org/1999/xlink" x="0px" y="0px"
	 viewBox="0 0 460 460" style="enable-background:new 0 0 460 460;" xml:space="preserve">
<style type="text/css">
	.st0{fill:#EFEFEF;}
</style>
<g>
	<path class="st0" d="M390.54,63.52H71.23c-14.06,0-25.46,11.4-25.46,25.46v281.33c0,14.06,11.4,25.46,25.46,25.46h319.3
		c14.06,0,25.46-11.4,25.46-25.46V88.98C416,74.92,404.6,63.52,390.54,63.52z M210.01,339.98c0,14.69-6.33,23.05-21.92,23.05
		c-11.75,0-15.6-2.49-20.34-9.95l-64.42-101.71h-0.45v93.8c0,11.98-6.78,17.86-17.86,17.86s-17.86-5.88-17.86-17.86V216.12
		c0-15.37,7.46-21.7,23.28-21.7c7.68,0,14.47,2.94,18.53,9.72l64.87,104.65h0.45v-96.51c0-11.98,6.78-17.86,17.86-17.86
		c11.08,0,17.86,5.88,17.86,17.86V339.98z M394.67,350.6c0,6.78-5.2,12.43-12.66,12.43c-10.62,0-13.56-6.55-15.82-21.02
		c-10.62,13.34-25.31,21.92-48.37,21.92c-57.41,0-79.33-39.55-79.33-85.21c0-54.92,34.36-85.21,84.76-85.21
		c41.14,0,63.06,24.64,63.06,39.1c0,12.88-9.49,16.27-17.4,16.27c-18.31,0-11.53-25.54-47.69-25.54
		c-25.54,0-45.66,16.73-45.66,57.86c0,32.1,15.82,54.25,46.11,54.25c19.66,0,36.84-13.34,38.65-33.23h-24.18
		c-7.91,0-16.73-2.94-16.73-14.24c0-9.04,5.2-14.24,14.47-14.24h45.66c10.85,0,15.14,5.42,15.14,15.6V350.6z"/>
	<polygon class="st0" points="36.36,214.79 41.91,220.82 21.6,239.5 40.28,259.8 34.24,265.35 10.02,239.01 	"/>
	<polygon class="st0" points="426.57,214.79 421.02,220.82 441.33,239.5 422.65,259.8 428.68,265.35 452.91,239.01 	"/>
</g>
</svg>
